<svg width="22" height="20" viewBox="0 0 22 20" fill="none" xmlns="http://www.w3.org/2000/svg">
<path d="M1.53001 17.65L2.87001 18.21V9.18L0.440008 15.04C0.0300076 16.06 0.520007 17.23 1.53001 17.65ZM21.03 13.95L16.07 1.98C15.76 1.23 15.03 0.77 14.26 0.75C14 0.75 13.73 0.79 13.47 0.9L6.10001 3.95C5.35001 4.26 4.89001 4.98 4.87001 5.75C4.86001 6.02 4.91001 6.29 5.02001 6.55L9.98001 18.52C10.29 19.28 11.03 19.74 11.81 19.75C12.07 19.75 12.33 19.7 12.58 19.6L19.94 16.55C20.96 16.13 21.45 14.96 21.03 13.95ZM11.83 17.75L6.87001 5.79L14.22 2.75H14.23L19.18 14.7L11.83 17.75Z" fill="#2B3140"/>
</svg>
