<svg width="24" height="18" viewBox="0 0 24 18" fill="none" xmlns="http://www.w3.org/2000/svg">
<path d="M8.56231 0.5H21.8182C22.2592 0.5 22.6853 0.680515 23.002 1.00708C23.3192 1.33417 23.5 1.78099 23.5 2.25V15.75C23.5 16.219 23.3192 16.6658 23.002 16.9929C22.6853 17.3195 22.2592 17.5 21.8182 17.5H8.56231C8.1218 17.5 7.70355 17.3064 7.41855 16.9705L1.47916 9.97047C1.00417 9.41067 1.00417 8.58933 1.47916 8.02953L7.41855 1.02953C7.70355 0.693638 8.1218 0.5 8.56231 0.5Z" stroke="#4C4C4D" stroke-linecap="round" stroke-linejoin="round"/>
<path d="M17.5455 5.625L11 12.375" stroke="#4C4C4D" stroke-linecap="round" stroke-linejoin="round"/>
<path d="M11 5.625L17.5455 12.375" stroke="#4C4C4D" stroke-linecap="round" stroke-linejoin="round"/>
</svg>
