<svg width="108" height="170" viewBox="0 0 108 170" fill="none" xmlns="http://www.w3.org/2000/svg">
<path d="M38.4638 158.8C38.4638 158.8 36.122 168.602 38.2509 169.029C40.3799 169.455 50.8116 169.317 53.3664 169.743C55.9211 170.17 61.2434 169.455 61.2434 167.537C61.2434 165.619 55.7082 164.341 55.7082 164.341C55.7082 164.341 47.8311 160.079 47.6182 159.866C47.4053 159.653 38.4638 158.8 38.4638 158.8Z" fill="#2F2E41"/>
<path d="M40.9712 88.8112C40.9712 88.8112 41.7348 97.4733 41.7348 98.2376C41.7348 99.0019 37.1531 139.255 38.1712 147.408C39.1894 155.561 38.077 158.164 38.077 159.693C38.077 161.222 46.3165 160.656 46.3165 160.656L55.2253 104.352L50.6436 87.5374L40.9712 88.8112Z" fill="#2F2E41"/>
<path d="M41.4443 160.946C41.4443 160.946 39.3154 168.617 41.4443 169.043C43.5732 169.47 54.005 168.555 56.5597 168.981C59.1145 169.408 64.4368 169.47 64.4368 167.552C64.4368 165.634 58.9016 164.355 58.9016 164.355C58.9016 164.355 51.0245 160.094 50.8116 159.881C50.5987 159.668 41.4443 160.946 41.4443 160.946Z" fill="#2F2E41"/>
<path d="M38.6803 78.6204C38.6803 78.6204 35.6259 86.0087 39.1894 89.8303C42.7529 93.6518 46.8256 101.295 46.8256 101.804C46.8256 102.314 39.6985 153.013 40.7167 156.325C41.7348 159.637 41.4803 161.675 41.2257 162.185C40.9712 162.694 43.7711 165.497 46.8256 165.497C49.88 165.497 54.4617 163.204 54.9708 161.166C55.4798 159.127 54.2072 141.548 54.4617 138.236C54.7162 134.924 64.8978 81.9324 63.6251 80.6586C62.3524 79.3847 38.6803 78.6204 38.6803 78.6204Z" fill="#2F2E41"/>
<path d="M58.0251 20.0236C62.8048 20.0236 66.6794 16.1454 66.6794 11.3614C66.6794 6.57745 62.8048 2.69927 58.0251 2.69927C53.2455 2.69927 49.3708 6.57745 49.3708 11.3614C49.3708 16.1454 53.2455 20.0236 58.0251 20.0236Z" fill="#9F616A"/>
<path d="M52.6799 15.6925C52.6799 15.6925 54.4617 25.119 53.189 26.138C51.9163 27.1571 62.8614 28.6857 62.8614 28.6857C62.8614 28.6857 64.1341 16.202 64.3887 14.9282C64.6432 13.6543 52.6799 15.6925 52.6799 15.6925Z" fill="#9F616A"/>
<path d="M64.3886 27.9214C64.3886 27.9214 66.0305 18.9448 53.5582 21.4924C53.5582 21.4924 42.1704 30.8383 42.6795 39.5004C43.1886 48.1625 38.6803 73.2702 39.1894 75.0536C39.6985 76.837 36.1349 79.1299 37.6622 79.8943C39.1894 80.6586 66.6795 85.2444 67.4431 79.8943C68.2067 74.5441 67.1886 61.0413 67.6977 58.4937C68.2067 55.946 67.6977 34.5454 66.1704 31.9977C64.6432 29.4501 64.3886 27.9214 64.3886 27.9214Z" fill="#6859B2"/>
<path d="M59.0433 90.085C59.0433 90.085 55.2252 104.607 60.0615 104.607C64.8977 104.607 64.6431 89.5755 64.6431 89.5755L59.0433 90.085Z" fill="#9F616A"/>
<path d="M61.5512 12.807C61.4408 13.5375 60.3138 13.841 58.6594 13.6987L58.6568 13.6983C57.9562 13.6326 57.2616 13.5137 56.5791 13.3425C55.5466 13.0883 54.9648 14.0077 54.5897 15.2804C53.9738 17.3799 53.9273 20.4468 53.3855 20.8467C49.6032 22.9392 38.427 8.9096 44.154 5.27727C46.1937 3.98356 53.06 -0.846703 57.8037 0.129228C62.5474 1.10516 60.6271 6.99839 60.6271 6.99839C60.6271 6.99839 60.801 7.77198 60.9984 8.76554C61.2794 10.0173 61.4693 11.2879 61.5669 12.5671C61.5668 12.6474 61.5616 12.7275 61.5512 12.807Z" fill="#2F2E41"/>
<path d="M62.0978 30.4691C62.0978 30.4691 53.4435 29.9595 52.6799 42.698C51.9162 55.4365 52.1708 67.4106 52.1708 67.6654C52.1708 67.9202 55.7343 92.1232 59.0433 92.1232C62.3523 92.1232 64.8977 91.6136 65.6613 90.3398C66.4249 89.0659 63.625 70.7226 63.625 70.7226C63.625 70.7226 62.3523 51.3601 64.3886 45.2457C66.4249 39.1312 66.6795 31.2334 62.0978 30.4691Z" fill="#6859B2"/>
<path opacity="0.1" d="M52.303 46.2012L49.7925 73.4225L58.1607 92.268L52.7214 73.0037L52.303 45.7824" fill="black"/>
<path opacity="0.1" d="M64.4368 49.1327L65.0761 81.2242L62.7632 63.7904L64.4368 49.1327Z" fill="black"/>
<path d="M107.84 170H0V169.118H108L107.84 170Z" fill="#E6E6E6"/>
<path d="M83 137C85.6867 140.707 86.3965 161.804 86.5546 168.567C86.5587 168.719 86.5627 168.863 86.5647 169H93.3658C93.4489 168.856 93.526 168.713 93.599 168.567C97.6301 160.801 95.3935 151.489 95.2759 151.018C95.5821 152.498 94.1972 156.789 92.6317 160.945C91.6767 148.166 83.511 137.645 83 137Z" fill="#E6E6E6"/>
</svg>
