<svg width="224" height="144" viewBox="0 0 224 144" fill="none" xmlns="http://www.w3.org/2000/svg">
<g opacity="0.2">
<path opacity="0.2" d="M188.828 124.513C187.285 125.442 185.712 126.342 184.108 127.213C183.859 127.348 183.61 127.482 183.361 127.621C182.156 128.267 180.931 128.896 179.687 129.507C179.697 129.409 179.709 129.311 179.724 129.213C179.866 128.199 180.183 127.217 180.659 126.311C180.883 125.877 181.149 125.467 181.455 125.086C182.669 123.57 184.355 122.723 186.077 122.97C187.151 123.135 188.128 123.683 188.828 124.513Z" fill="#3F3D56"/>
<path opacity="0.2" d="M191.657 122.193C191.626 122.411 191.587 122.625 191.54 122.837C190.649 123.41 189.745 123.969 188.828 124.513C187.285 125.442 185.712 126.342 184.108 127.213C183.859 127.348 183.61 127.482 183.361 127.621C183.061 127.401 182.788 127.149 182.545 126.868C182.088 126.341 181.722 125.741 181.461 125.095C180.915 123.683 180.742 122.154 180.956 120.656C181.17 119.158 181.766 117.74 182.685 116.537C183.91 115.021 185.585 114.174 187.308 114.421C189.03 114.668 190.41 115.956 191.149 117.752C191.71 119.16 191.885 120.693 191.657 122.193Z" fill="#3F3D56"/>
<path opacity="0.2" d="M192.894 113.642C193.45 109.775 191.506 106.296 188.551 105.872C185.597 105.447 182.752 108.237 182.196 112.104C181.64 115.971 183.584 119.45 186.538 119.875C189.493 120.299 192.338 117.509 192.894 113.642Z" fill="#3F3D56"/>
<path opacity="0.2" d="M223.733 42.1329C223.207 45.8315 221.884 49.3718 219.855 52.5085L204.671 50.2105L218.394 54.5391C217.65 55.4774 216.844 56.3639 215.98 57.1922C218.882 62.2182 220.011 68.0737 219.186 73.8186C218.361 79.5635 215.628 84.8643 211.428 88.8699C213.884 93.1058 215.081 97.9537 214.88 102.845C208.424 110.358 200.549 117.097 191.547 122.846C190.652 123.413 189.745 123.969 188.828 124.513C187.286 125.442 185.712 126.342 184.108 127.213C183.579 127.111 183.059 126.995 182.545 126.86C181.906 126.699 181.279 126.511 180.665 126.303C176.456 124.866 172.688 122.37 169.725 119.054C166.761 115.738 164.702 111.714 163.746 107.371C162.79 103.028 162.969 98.5112 164.266 94.2572C165.563 90.0032 167.934 86.1552 171.151 83.0842C170.889 82.6338 170.643 82.176 170.41 81.7107C170.341 81.576 170.275 81.4413 170.206 81.3025C168.32 77.3703 167.463 73.0236 167.716 68.6698L167.747 68.2188C167.765 67.9759 167.787 67.731 167.812 67.4881C167.849 67.1453 167.892 66.8004 167.94 66.4555V66.4228C168.34 63.6393 169.193 60.9401 170.467 58.433L188.979 67.7555L172.1 55.6575C173.141 54.1149 174.345 52.689 175.692 51.4044C173.932 48.3279 172.822 44.9228 172.432 41.4C172.042 37.8772 172.38 34.3119 173.424 30.9249C174.468 27.538 176.197 24.4016 178.503 21.7101C180.809 19.0187 183.644 16.8295 186.831 15.2783C190.017 13.7271 193.489 12.847 197.03 12.6923C200.571 12.5377 204.106 13.112 207.416 14.3795C210.725 15.6471 213.74 17.5809 216.272 20.0611C218.804 22.5413 220.799 25.5151 222.135 28.7981L201.345 39.9186L223.255 32.2716C224.047 35.4974 224.209 38.8457 223.733 42.1329Z" fill="#6859B2"/>
<path opacity="0.1" d="M214.873 102.837C208.418 110.35 200.543 117.088 191.541 122.837C190.649 123.41 189.745 123.969 188.828 124.513C187.286 125.442 185.712 126.342 184.108 127.213C183.579 127.111 183.059 126.995 182.545 126.86C181.906 126.699 181.279 126.511 180.665 126.303C176.456 124.866 172.688 122.37 169.725 119.054C166.761 115.738 164.702 111.714 163.746 107.371C162.79 103.028 162.969 98.5112 164.266 94.2572C165.563 90.0032 167.934 86.1552 171.151 83.0842C170.889 82.6338 170.643 82.176 170.41 81.7107C170.341 81.576 170.275 81.4413 170.206 81.3025C168.32 77.3703 167.463 73.0236 167.716 68.6698L167.747 68.2188C167.765 67.9759 167.787 67.731 167.812 67.4881C167.849 67.1453 167.892 66.8004 167.94 66.4555V66.4228C168.1 65.8718 170.206 66.3351 173.414 67.4432L174.092 67.6841C174.802 67.9392 175.559 68.2208 176.355 68.529C178.092 69.1984 180.01 69.9882 182.034 70.8616L182.167 70.9188L182.449 71.0412C196.061 76.9433 213.967 86.4127 211.4 88.8577C213.864 93.0924 215.069 97.9419 214.873 102.837Z" fill="black"/>
</g>
<g opacity="0.2">
<path opacity="0.2" d="M65.0847 135.966C64.2276 135.669 63.3765 135.365 62.5316 135.052C60.5643 134.328 58.6275 133.563 56.7214 132.756C57.1079 132.442 57.5466 132.199 58.0173 132.037C59.7173 131.454 61.5847 132.011 63.1051 133.354C63.9257 134.09 64.5977 134.977 65.0847 135.966Z" fill="#3F3D56"/>
<path opacity="0.2" d="M63.1051 133.354C62.9895 133.943 62.7967 134.513 62.5316 135.052C60.5643 134.328 58.6275 133.563 56.7214 132.756C55.0629 132.058 53.4302 131.329 51.8234 130.57C51.7532 130.083 51.7218 129.591 51.7295 129.099C51.7364 128.586 51.7911 128.075 51.8928 127.572C52.301 125.566 53.4561 123.968 55.1581 123.384C56.8602 122.801 58.7255 123.358 60.2459 124.703C60.6141 125.029 60.9516 125.388 61.2541 125.776C61.9243 126.639 62.4407 127.611 62.7806 128.65C63.2959 130.163 63.4077 131.784 63.1051 133.354Z" fill="#3F3D56"/>
<path opacity="0.2" d="M56.8753 128.924C59.8114 127.996 61.1851 124.059 59.9436 120.131C58.702 116.203 55.3154 113.771 52.3793 114.699C49.4431 115.627 48.0694 119.564 49.3109 123.492C50.5525 127.42 53.9391 129.852 56.8753 128.924Z" fill="#3F3D56"/>
<path opacity="0.2" d="M53.5947 119.864C56.52 118.941 57.8896 115.019 56.6537 111.105C55.4178 107.192 52.0445 104.768 49.1192 105.692C46.1939 106.616 44.8243 110.537 46.0602 114.451C47.2961 118.364 50.6694 120.788 53.5947 119.864Z" fill="#3F3D56"/>
<path opacity="0.2" d="M61.2439 125.776C60.6765 126.108 60.0942 126.419 59.4969 126.709C58.5342 127.177 57.5439 127.586 56.5316 127.933C55.6079 128.252 54.667 128.519 53.7132 128.731C53.0507 128.881 52.3874 129.003 51.7234 129.097C50.8989 129.215 50.0765 129.293 49.2561 129.329C39.3948 124.431 30.5417 118.439 22.9865 111.597C22.8784 111.307 22.7825 111.015 22.6784 110.719C20.7416 104.912 20.7746 98.6279 22.7723 92.8413C17.7202 89.4492 13.9474 84.4652 12.0538 78.6821C11.1118 75.852 10.6295 72.8892 10.6252 69.9065H31.9988L10.8334 66.5228C11.0685 64.577 11.5091 62.6615 12.1477 60.8085C7.09537 57.4175 3.3224 52.4341 1.42928 46.6513C-3.31769 32.343 4.14562 16.8552 18.0988 12.0511C27.4396 8.83882 37.3193 11.2348 44.2561 17.4593L30.3478 37.8186L46.9071 20.2022C49.1476 22.8772 50.8596 25.9535 51.952 29.2675C53.1975 33.0107 53.6344 36.9757 53.2336 40.9002L38.207 45.9411L52.8398 43.5064C52.596 44.7409 52.268 45.9574 51.8581 47.1472C56.91 50.5386 60.6829 55.5219 62.5766 61.3044C63.4939 64.0591 63.9758 66.94 64.0051 69.8432V69.8657C64.0051 70.0902 64.0051 70.3147 64.0051 70.5392C64.0051 70.6351 64.0051 70.729 64.0051 70.8249C63.9338 73.6751 63.4237 76.4974 62.4929 79.1923C64.5461 80.5678 66.4002 82.2194 68.0031 84.1005C68.0439 84.1454 68.0827 84.1903 68.1194 84.2372C70.3797 86.9226 72.1053 90.0156 73.2031 93.3495C77.3807 105.941 72.0929 119.452 61.2439 125.776Z" fill="#6859B2"/>
<path opacity="0.1" d="M61.2439 125.776C60.6765 126.108 60.0942 126.419 59.4969 126.709C58.5342 127.177 57.5439 127.586 56.5316 127.933C55.6079 128.252 54.667 128.519 53.7132 128.731C53.0507 128.881 52.3874 129.003 51.7234 129.097C50.8989 129.215 50.0765 129.293 49.2561 129.329C39.3948 124.431 30.5417 118.439 22.9865 111.597C22.8784 111.307 22.7825 111.015 22.6784 110.719C20.7416 104.912 20.7746 98.6279 22.7723 92.8413C17.7202 89.4492 13.9474 84.4652 12.0538 78.6821C11.3212 76.4739 41.8744 74.6923 55.7908 76.4004L56.1153 76.4413C60.3398 76.9862 62.9337 77.8698 62.4827 79.178C64.5359 80.5536 66.39 82.2051 67.9929 84.0862C68.0337 84.1311 68.0725 84.176 68.1092 84.2229C70.3695 86.9083 72.0951 90.0013 73.1929 93.3352C77.3807 105.941 72.0929 119.452 61.2439 125.776Z" fill="black"/>
</g>
<path opacity="0.1" d="M78.0032 49.2778C78.1142 49.1198 78.1753 48.9321 78.1788 48.739C78.1788 47.5655 75.7889 46.6166 72.842 46.6166C69.895 46.6166 67.5093 47.5737 67.5093 48.739C67.5134 48.9615 67.5901 49.1764 67.7277 49.3513C64.4481 49.7166 62.2379 50.4043 62.2379 51.188C62.2379 52.3594 67.1358 53.3084 73.1665 53.3084C79.1971 53.3084 84.0951 52.3594 84.0951 51.188C84.0931 50.3472 81.6114 49.6247 78.0032 49.2778Z" fill="#6859B2"/>
<path opacity="0.1" d="M162.681 6.22655C162.858 5.9742 162.955 5.67514 162.961 5.36737C162.961 3.50817 159.169 2 154.491 2C149.814 2 146.022 3.50817 146.022 5.36737C146.03 5.716 146.153 6.05223 146.371 6.32451C141.163 6.90615 137.655 7.99595 137.655 9.24494C137.655 11.1041 145.41 12.6123 155.002 12.6123C164.593 12.6123 172.349 11.1041 172.349 9.24494C172.349 7.92044 168.408 6.77554 162.681 6.22655Z" fill="#6859B2"/>
<path opacity="0.1" d="M94.7217 6.22655C94.898 5.9742 94.9953 5.67514 95.0013 5.36737C95.0013 3.50817 91.2094 2 86.5319 2C81.8543 2 78.0624 3.50817 78.0624 5.36737C78.0709 5.716 78.1935 6.05223 78.4114 6.32451C73.2032 6.90615 69.695 7.99595 69.695 9.24494C69.695 11.1041 77.4604 12.6123 87.0421 12.6123C96.6237 12.6123 104.389 11.1041 104.389 9.24494C104.389 7.92044 100.448 6.77554 94.7217 6.22655Z" fill="#6859B2"/>
<path opacity="0.1" d="M73.2501 23.8062C73.7276 23.5307 74.3685 23.794 74.695 24.2369C75.0215 24.6797 75.1154 25.2573 75.197 25.794C75.3787 27.0001 75.5093 28.3859 74.697 29.2961C76.0256 25.2614 79.8522 22.1695 84.0848 21.7185" stroke="#6859B2" stroke-width="3" stroke-miterlimit="10"/>
<path opacity="0.1" d="M126.612 3.80206C126.918 3.62451 127.332 3.80207 127.542 4.07758C127.729 4.38049 127.839 4.72449 127.863 5.07962C127.979 5.85514 128.067 6.74494 127.542 7.32453C127.99 6.02929 128.793 4.88595 129.859 4.02469C130.926 3.16344 132.212 2.6189 133.573 2.45308" stroke="#6859B2" stroke-width="3" stroke-miterlimit="10"/>
<path opacity="0.1" d="M161.714 41.5574C162.02 41.3798 162.434 41.5574 162.644 41.8329C162.831 42.1358 162.941 42.4798 162.965 42.8349C163.081 43.6104 163.169 44.5002 162.644 45.0798C163.093 43.7846 163.896 42.6413 164.962 41.78C166.028 40.9188 167.315 40.3742 168.675 40.2084" stroke="#6859B2" stroke-width="3" stroke-miterlimit="10"/>
<g opacity="0.1">
<path opacity="0.1" d="M141.05 23.3021C141.11 23.5254 141.196 23.7406 141.308 23.943C141.28 23.4838 141.169 23.0335 140.979 22.6144C140.97 22.8459 140.994 23.0774 141.05 23.3021Z" fill="black"/>
<path opacity="0.1" d="M99.6849 56.0717L99.4482 56.0921C99.5276 56.0938 99.607 56.087 99.6849 56.0717Z" fill="black"/>
</g>
<path d="M143.977 129.615C143.717 129.817 143.406 129.943 143.079 129.98C137.861 131.052 132.595 131.966 127.275 132.256C122.581 132.513 117.873 132.282 113.177 132.052C108.481 131.821 103.789 131.589 99.2054 130.64C101.105 126.815 102.3 122.681 102.736 118.433C102.929 116.569 102.976 114.693 102.877 112.821C102.862 112.596 102.834 112.372 102.795 112.15C102.577 110.807 102.038 108.862 102.528 107.89C103.156 106.641 105.571 106.601 106.75 106.368C108.754 105.974 110.769 105.646 112.791 105.37C120.818 104.278 128.926 104.029 137.014 103.786C138.099 103.754 139.393 103.827 139.959 104.756C140.275 105.276 140.259 105.925 140.242 106.535C140.206 107.856 140.219 109.177 140.281 110.499C140.565 116.357 141.819 122.127 143.991 127.574C144.261 128.242 144.508 129.115 143.977 129.615Z" fill="#9F616A"/>
<path d="M112.222 56.9391C111.369 57.9901 110.167 58.6962 108.956 59.3166C107.511 60.0635 106.022 60.7232 104.497 61.2922C104.189 61.7595 104.434 62.3799 104.701 62.8779C107.095 67.5269 110.299 72.1473 115.132 74.1453C117.612 75.1657 120.332 75.4208 123.005 75.6596C123.838 75.7331 124.687 75.8065 125.499 75.6065C126.312 75.4065 127.067 74.9229 127.744 74.4106C132.172 71.06 135.088 66.0881 135.85 60.5881C135.916 60.1003 135.916 59.5024 135.497 59.2411C135.242 59.084 134.918 59.1146 134.618 59.1166C132.661 59.137 130.926 57.6881 130.022 55.9554C129.118 54.2227 128.877 52.2248 128.655 50.2799C128.655 50.237 117.148 49.9941 116.11 49.986C114.489 49.9717 113.954 50.1615 113.797 51.8227C113.632 53.6554 113.428 55.4452 112.222 56.9391Z" fill="#9F616A"/>
<path opacity="0.1" d="M112.222 56.9391C111.369 57.9901 110.167 58.6962 108.956 59.3166C107.511 60.0635 106.022 60.7232 104.497 61.2922C104.189 61.7595 104.434 62.3799 104.701 62.8779C107.095 67.5269 110.299 72.1473 115.132 74.1453C117.612 75.1657 120.332 75.4208 123.005 75.6596C123.838 75.7331 124.687 75.8065 125.499 75.6065C126.312 75.4065 127.067 74.9229 127.744 74.4106C132.172 71.06 135.088 66.0881 135.85 60.5881C135.916 60.1003 135.916 59.5024 135.497 59.2411C135.242 59.084 134.918 59.1146 134.618 59.1166C132.661 59.137 130.926 57.6881 130.022 55.9554C129.118 54.2227 128.877 52.2248 128.655 50.2799C128.655 50.237 117.148 49.9941 116.11 49.986C114.489 49.9717 113.954 50.1615 113.797 51.8227C113.632 53.6554 113.428 55.4452 112.222 56.9391Z" fill="black"/>
<path d="M121.367 54.7656C130.045 54.7656 137.081 47.73 137.081 39.0512C137.081 30.3724 130.045 23.3369 121.367 23.3369C112.688 23.3369 105.652 30.3724 105.652 39.0512C105.652 47.73 112.688 54.7656 121.367 54.7656Z" fill="#9F616A"/>
<path d="M132.891 57.682C133.065 59.8861 109.377 61.9493 108.483 59.2309C107.952 59.8575 106.979 59.9085 106.203 59.6391C105.428 59.3697 104.775 58.8514 104.04 58.4697C102.816 57.8309 101.436 57.5942 100.079 57.3636C97.8686 56.9901 95.3012 56.7166 93.6645 58.2493C93.0992 58.7779 92.7135 59.4738 92.1461 60.0044C91.1543 60.9269 89.7522 61.2146 88.4726 61.6371C86.6257 62.2493 84.9236 63.2289 83.1787 64.0861C79.1044 66.0921 74.7605 67.4959 70.2827 68.2534C69.3297 68.4147 68.3705 68.5453 67.4256 68.7718C66.099 69.0902 64.7725 69.6351 63.8684 70.6575C64.9256 72.0086 66.4439 72.7453 68.0746 73.278L83.8093 78.4209C86.1767 79.1943 88.5808 79.9841 90.6522 81.3699C94.1033 83.6719 96.3482 87.4556 97.5768 91.4169C98.8053 95.3781 99.1217 99.5577 99.4278 103.694C99.5605 105.492 100.134 126.049 99.4278 127.714C103.093 128.146 112.351 133.981 116 133.429C119.512 132.894 115.875 133.396 119.429 133.429C123.306 133.467 118.463 131.035 122.286 131.714C126.108 132.394 140.485 128.714 143.706 126.545C143.02 125.62 142.463 105.619 142.436 104.472L142.355 99.0373C142.318 98.3813 142.362 97.7234 142.485 97.0781C142.759 95.9148 142.485 94.5 143 93C143 89.5 143.447 89.3041 143.5 87C143.553 84.6959 145.265 82.2678 146.822 80.5821C147.842 79.4821 149.271 78.8576 150.72 78.4719C153.197 77.8106 155.789 77.7678 158.349 77.5862C166.692 76.9879 174.855 74.8622 182.43 71.3147C181.977 70.3575 180.924 69.8147 179.963 69.3698C177.689 68.3188 175.281 67.2412 172.787 67.4759C171.581 67.5902 170.387 68.0106 169.185 67.8575C168.047 67.7106 167.038 67.0657 165.932 66.7575C165.093 66.5249 164.216 66.4902 163.355 66.3596C161.367 66.0555 159.502 65.2371 157.663 64.4269L153.018 62.3861C151.793 61.8452 150.518 61.2677 149.677 60.2228C149.404 59.882 149.183 59.4983 148.885 59.1779C148.373 58.6289 147.661 58.3044 146.948 58.0779C146.054 57.7665 145.1 57.6618 144.159 57.7718C143.513 57.9 142.876 58.067 142.25 58.2718C139.181 59.1003 136.014 58.2391 132.891 57.682Z" fill="#6859B2"/>
<path d="M150.865 139.876C142.5 141.887 133.98 143.184 125.395 143.754H125.381H103.828H103.816C99.9585 143.491 96.1571 143.09 92.4115 142.55C93.5168 139.26 95.0401 136.125 96.9442 133.223C97.2488 132.813 97.4871 132.357 97.6503 131.872C97.74 131.421 97.7858 130.963 97.787 130.503C97.8864 129.094 98.4326 127.755 99.3462 126.678C99.7707 126.91 100.199 127.132 100.632 127.346C105.534 129.78 110.872 131.213 116.334 131.56C119.207 131.707 122.087 131.649 124.952 131.386C131.414 130.866 138.132 129.666 143.336 125.856C143.555 125.697 143.771 125.531 143.985 125.362C146.514 127.607 147.977 131.048 149.024 134.264C149.647 136.146 150.222 138.023 150.865 139.876Z" fill="#2F2E41"/>
<path opacity="0.1" d="M121.281 126.893C121.179 127.222 121.154 127.571 121.208 127.911C121.262 128.252 121.393 128.576 121.591 128.858C121.724 128.563 121.763 128.234 121.704 127.916C121.645 127.598 121.49 127.306 121.26 127.078L121.281 126.893Z" fill="black"/>
<path d="M112.352 60.9207C113.144 60.4881 113.999 60.1044 114.901 60.0921C116.256 60.0799 117.469 60.9085 118.473 61.8228C119.401 62.6612 120.241 63.5926 120.979 64.6024C121.346 65.1024 121.697 65.6514 121.752 66.2697C121.807 66.8881 121.469 67.584 120.865 67.731C120.483 67.7953 120.091 67.7161 119.765 67.5085C118.369 66.7412 117.334 64.984 115.75 65.1554C114.665 65.2718 113.93 66.282 113.336 67.1963C112.807 68.0126 112.273 68.8514 112.036 69.7942C111.799 70.7371 111.914 71.8351 112.571 72.5453C113.081 73.1024 113.826 73.3616 114.522 73.6514C116.061 74.2885 117.47 75.203 118.679 76.3494C119.265 76.9086 119.822 77.5739 119.903 78.3902C119.985 79.2065 119.367 80.1045 118.558 80.0474C118.194 79.9903 117.85 79.8407 117.561 79.6127C116.099 78.6474 114.607 77.6351 112.893 77.28C111.148 76.9188 109.346 77.28 107.587 77.5494C105.658 77.8378 103.719 78.0433 101.771 78.1657C101.192 78.232 100.607 78.194 100.042 78.0535C98.1155 77.4576 97.5543 75.0065 97.7788 73.2351C98.0176 71.3412 99.4114 70.9106 100.869 69.9698C104.967 67.2881 108.007 63.2881 112.352 60.9207Z" fill="#9F616A"/>
<path d="M127.448 60.9207C126.654 60.4881 125.801 60.1044 124.897 60.0921C123.542 60.0799 122.33 60.9085 121.326 61.8228C120.398 62.6613 119.559 63.5927 118.822 64.6024C118.456 65.1024 118.105 65.6514 118.05 66.2697C117.995 66.8881 118.332 67.584 118.936 67.731C119.318 67.7953 119.711 67.716 120.038 67.5085C121.434 66.7412 122.469 64.984 124.05 65.1554C125.138 65.2718 125.873 66.282 126.465 67.1963C126.993 68.0126 127.53 68.8514 127.765 69.7942C127.999 70.7371 127.887 71.8351 127.23 72.5453C126.722 73.1024 125.975 73.3616 125.279 73.6514C123.739 74.2888 122.329 75.2032 121.12 76.3494C120.534 76.9086 119.979 77.5739 119.895 78.3902C119.812 79.2065 120.432 80.1045 121.24 80.0474C121.605 79.9907 121.948 79.841 122.238 79.6127C123.699 78.6474 125.191 77.6351 126.905 77.28C128.65 76.9188 130.452 77.28 132.212 77.5494C134.136 77.8514 136.077 78.0616 138.022 78.178C138.601 78.2443 139.187 78.2063 139.752 78.0657C141.677 77.4698 142.238 75.0188 142.016 73.2473C141.775 71.3534 140.383 70.9228 138.924 69.982C134.834 67.2881 131.795 63.2881 127.448 60.9207Z" fill="#9F616A"/>
<path opacity="0.1" d="M101.744 68.8432C99.2362 69.344 96.6752 69.5264 94.1216 69.3861C93.1196 69.333 92.1135 69.2289 91.1155 69.3228C89.9114 69.4371 88.7543 69.8351 87.5808 70.1249C81.5012 71.6208 75.1481 70.1596 68.9419 69.3392C67.846 69.1943 66.7256 69.0698 65.6398 69.282C64.646 69.4759 63.7276 69.9412 62.848 70.4412C61.4228 71.2517 60.0587 72.165 58.7663 73.1739C57.4133 74.231 56.048 75.578 55.9541 77.2902C55.8724 78.7637 56.7704 80.1208 57.8582 81.1229C60.797 83.8433 65.1602 84.6617 69.095 83.9249C70.5909 83.6454 72.0501 83.1637 73.5623 82.9964C75.1113 82.8249 76.6766 82.9964 78.2338 82.9229C81.3971 82.7821 84.4257 81.6821 87.4971 80.9168C92.2935 79.7225 97.255 79.3336 102.179 79.7657C102.136 79.7843 102.09 79.7931 102.043 79.7916C101.996 79.7901 101.951 79.7783 101.909 79.7571C101.867 79.7358 101.831 79.7056 101.803 79.6686C101.774 79.6317 101.754 79.5889 101.744 79.5433C101.383 78.5474 101.365 77.4637 101.371 76.4045C101.387 73.8351 101.507 71.4024 101.744 68.8432Z" fill="black"/>
<path d="M101.336 69.0473C98.828 69.5481 96.267 69.7305 93.7134 69.5902C92.7114 69.5371 91.7053 69.433 90.7073 69.5269C89.5032 69.6412 88.3461 70.0392 87.1726 70.329C81.093 71.8249 74.7399 70.3636 68.5337 69.5432C67.4378 69.3983 66.3174 69.2738 65.2316 69.4861C64.2378 69.68 63.3194 70.1453 62.4398 70.6453C61.0146 71.4557 59.6505 72.3691 58.3581 73.378C57.0051 74.4351 55.6397 75.782 55.5459 77.4943C55.4642 78.9678 56.3622 80.3249 57.45 81.327C60.3888 84.0474 64.752 84.8658 68.6868 84.129C70.1827 83.8494 71.6419 83.3678 73.1541 83.2005C74.7031 83.029 76.2684 83.2005 77.8256 83.127C80.9889 82.9862 84.0175 81.8862 87.0889 81.1209C91.8853 79.9266 96.8467 79.5376 101.771 79.9698C101.728 79.9884 101.681 79.9972 101.635 79.9957C101.588 79.9942 101.542 79.9824 101.501 79.9612C101.459 79.9399 101.423 79.9097 101.394 79.8727C101.366 79.8358 101.346 79.793 101.336 79.7474C100.975 78.7515 100.956 77.6678 100.962 76.6086C100.979 74.0392 101.099 71.6065 101.336 69.0473Z" fill="#6859B2"/>
<path opacity="0.1" d="M138.53 67.7514C141.64 68.4595 149.126 68.7718 152.314 68.6657C153.769 68.6208 155.22 68.4901 156.675 68.4942C159.169 68.4942 161.659 68.9024 164.147 68.7371C167.361 68.5167 170.518 67.335 173.724 67.6391C175.3 67.7901 176.816 68.2922 178.318 68.7942C179.82 69.2963 181.457 69.8636 182.514 71.084C183.494 72.2147 183.851 73.7371 184.175 75.1983C184.357 76.0147 184.538 76.8575 184.379 77.6759C184.075 79.229 182.645 80.28 181.271 81.0637C179.638 81.9943 177.847 82.7943 175.965 82.7514C174.849 82.727 173.763 82.4045 172.7 82.0698C169.653 81.1127 166.538 80.029 163.355 80.2678C161.128 80.4392 158.904 81.2596 156.714 80.8167C155.426 80.5555 154.265 79.8739 153.04 79.4208C150.057 78.329 142.483 78.6188 139.32 78.9208C139.504 77.1433 139.481 75.3514 139.665 73.5718C139.808 72.2106 139.944 70.8004 139.508 69.5024C139.234 68.7248 139.142 68.3024 138.53 67.7514Z" fill="black"/>
<path d="M138.734 68.1596C141.844 68.8677 149.33 69.18 152.518 69.0739C153.973 69.029 155.424 68.8983 156.879 68.9024C159.373 68.9024 161.863 69.3106 164.351 69.1453C167.565 68.9249 170.722 67.7432 173.928 68.0473C175.504 68.1983 177.02 68.7004 178.522 69.2024C180.024 69.7045 181.661 70.2718 182.718 71.4922C183.698 72.6229 184.055 74.1453 184.379 75.6065C184.561 76.4229 184.743 77.2657 184.583 78.0841C184.279 79.6372 182.849 80.6882 181.475 81.4719C179.843 82.4025 178.051 83.2025 176.169 83.1597C175.053 83.1352 173.967 82.8127 172.904 82.478C169.857 81.5209 166.743 80.4372 163.559 80.676C161.332 80.8474 159.108 81.6678 156.918 81.2249C155.63 80.9637 154.469 80.2821 153.244 79.829C150.261 78.7372 142.687 79.027 139.524 79.329C139.708 77.5515 139.685 75.7596 139.869 73.98C140.012 72.6188 140.148 71.2086 139.712 69.9106C139.438 69.133 139.346 68.7106 138.734 68.1596Z" fill="#6859B2"/>
<path d="M106.307 37.0818C105.83 36.9573 105.646 36.3533 105.216 36.1104C104.785 35.8675 104.246 36.0594 103.936 36.4206C103.648 36.8029 103.492 37.2684 103.491 37.7471C103.453 38.7794 103.734 39.7984 104.297 40.6648C104.859 41.5313 105.675 42.2029 106.634 42.588C106.207 40.7302 106.042 38.822 106.144 36.9186L106.307 37.0818Z" fill="#9F616A"/>
<path d="M136.424 37.0818C136.901 36.9573 137.083 36.3533 137.514 36.1104C137.944 35.8675 138.483 36.0594 138.793 36.4206C139.082 36.8024 139.239 37.2683 139.238 37.7471C139.276 38.7794 138.995 39.7984 138.433 40.6648C137.87 41.5313 137.054 42.2029 136.095 42.588C136.522 40.7302 136.687 38.822 136.585 36.9186L136.424 37.0818Z" fill="#9F616A"/>
<g opacity="0.1">
<path opacity="0.1" d="M116.863 82.3372C117.252 83.7598 117.441 85.2298 117.424 86.7046C117.424 89.2699 116.92 91.5087 116.169 92.7107C116.105 93.2822 116.034 93.8495 115.965 94.4067C117.024 93.5903 117.801 90.9087 117.801 87.725C117.793 85.5495 117.43 83.6086 116.863 82.3372Z" fill="black"/>
</g>
<g opacity="0.1">
<path opacity="0.1" d="M122.612 82.3372C122.222 83.7597 122.032 85.2297 122.048 86.7046C122.048 89.2699 122.554 91.5087 123.306 92.7107C123.369 93.2822 123.438 93.8495 123.51 94.4067C122.45 93.5903 121.673 90.9087 121.673 87.725C121.671 85.5495 122.034 83.6086 122.612 82.3372Z" fill="black"/>
</g>
<path d="M138.534 29.7286C138.534 29.7286 141.458 23.3466 133.855 20.4457C133.855 20.4457 127.421 10.0025 114.554 16.9647C114.554 16.9647 105.781 20.4457 105.781 29.7286C105.781 39.0115 102.857 40.7521 102.857 40.7521C102.857 40.7521 107.212 36.3202 108.382 32.8391C109.551 29.3581 118.648 28.5683 122.158 32.0494C125.667 35.5305 134.44 34.9503 134.44 34.9503L133.855 47.7143C133.855 47.7143 136.779 40.1719 137.949 40.1719C139.119 40.1719 140.288 29.7286 138.534 29.7286Z" fill="#2F2E41"/>
</svg>
