<svg width="20" height="20" viewBox="0 0 20 20" fill="none" xmlns="http://www.w3.org/2000/svg">
<path fill-rule="evenodd" clip-rule="evenodd" d="M20 10C20 15.5228 15.5228 20 10 20C4.47715 20 0 15.5228 0 10C0 4.47715 4.47715 0 10 0C15.5228 0 20 4.47715 20 10ZM17.9381 11C17.446 14.9463 14.0796 18 10 18C5.92038 18 2.55399 14.9463 2.06189 11H6.12602C6.57006 12.7252 8.13616 14 10 14C11.8638 14 13.4299 12.7252 13.874 11H17.9381ZM17.9381 9H13.874C13.4299 7.27477 11.8638 6 10 6C8.13616 6 6.57006 7.27477 6.12602 9H2.06189C2.55399 5.05369 5.92038 2 10 2C14.0796 2 17.446 5.05369 17.9381 9ZM12 10C12 11.1046 11.1046 12 10 12C8.89543 12 8 11.1046 8 10C8 8.89543 8.89543 8 10 8C11.1046 8 12 8.89543 12 10Z" fill="#2B3140"/>
</svg>
