<svg width="15" height="15" viewBox="0 0 15 15" fill="none" xmlns="http://www.w3.org/2000/svg">
<path d="M6.95212 0.90254C7.13589 0.532222 7.66411 0.532223 7.84788 0.902541L9.57007 4.37296C9.64305 4.52002 9.78356 4.62188 9.94602 4.6455L13.7937 5.2049C14.2044 5.26462 14.3678 5.76997 14.0696 6.0588L11.2897 8.75207C11.171 8.86707 11.1168 9.03328 11.1449 9.19614L11.8013 13.0031C11.8717 13.4112 11.4438 13.7231 11.0768 13.5311L7.63176 11.729C7.48658 11.6531 7.31342 11.6531 7.16825 11.729L3.72318 13.5311C3.35621 13.7231 2.92832 13.4112 2.99869 13.0031L3.65512 9.19614C3.6832 9.03328 3.629 8.86707 3.5103 8.75207L0.730365 6.0588C0.432231 5.76996 0.595553 5.26462 1.00634 5.2049L4.85398 4.6455C5.01644 4.62188 5.15695 4.52002 5.22993 4.37296L6.95212 0.90254Z" stroke="#6859B3" stroke-linecap="round" stroke-linejoin="round"/>
</svg>
