<svg width="184" height="147" viewBox="0 0 184 147" fill="none" xmlns="http://www.w3.org/2000/svg">
<path d="M7.21854 0.558746C5.30473 0.560928 3.46994 1.32342 2.11667 2.67894C0.763399 4.03447 0.00217574 5.87233 0 7.78933V139.77C0.00220744 141.687 0.763443 143.524 2.11671 144.88C3.46997 146.235 5.30476 146.998 7.21854 147H79.3903C81.3041 146.998 83.1389 146.235 84.4922 144.88C85.8454 143.524 86.6067 141.687 86.6089 139.77V7.78931C86.6067 5.87232 85.8455 4.03446 84.4922 2.67894C83.1389 1.32342 81.3041 0.560927 79.3903 0.558746H7.21854Z" fill="#E6E6E6"/>
<path d="M9.57775 4.66684C8.12578 4.66849 6.73376 5.24698 5.70706 6.27538C4.68037 7.30379 4.10285 8.69812 4.1012 10.1525V137.406C4.10282 138.861 4.68034 140.255 5.70703 141.283C6.73373 142.312 8.12576 142.89 9.57775 142.892H77.031C78.483 142.89 79.875 142.312 80.9017 141.283C81.9284 140.255 82.5059 138.861 82.5076 137.406V10.1525C82.5059 8.69813 81.9284 7.30379 80.9017 6.27538C79.875 5.24698 78.483 4.66849 77.031 4.66684H9.57775Z" fill="white"/>
<path d="M75.8733 95.5251H10.7356C10.4158 95.5248 10.1092 95.3974 9.88308 95.1708C9.65695 94.9443 9.52974 94.6372 9.52936 94.3169V64.3579C9.52973 64.0376 9.65694 63.7305 9.88308 63.5039C10.1092 63.2774 10.4158 63.15 10.7356 63.1496H75.8733C76.1931 63.15 76.4997 63.2774 76.7259 63.504C76.952 63.7305 77.0792 64.0376 77.0796 64.3579V94.3169C77.0792 94.6372 76.952 94.9443 76.7259 95.1708C76.4997 95.3974 76.1931 95.5248 75.8733 95.5251ZM10.7356 63.6329C10.5437 63.6332 10.3598 63.7096 10.2241 63.8455C10.0884 63.9814 10.0121 64.1657 10.0119 64.3579V94.3169C10.0121 94.5091 10.0884 94.6934 10.2241 94.8293C10.3598 94.9652 10.5437 95.0416 10.7356 95.0419H75.8733C76.0652 95.0417 76.2492 94.9652 76.3849 94.8293C76.5206 94.6934 76.5969 94.5091 76.5971 94.3169V64.3579C76.5969 64.1657 76.5206 63.9814 76.3849 63.8455C76.2492 63.7096 76.0652 63.6331 75.8733 63.6329L10.7356 63.6329Z" fill="#E6E6E6"/>
<path d="M75.3908 56.6191H46.4406C46.1208 56.6188 45.8142 56.4913 45.5881 56.2648C45.362 56.0383 45.2347 55.7312 45.2344 55.4109V39.2261C45.2347 38.9057 45.362 38.5986 45.5881 38.3721C45.8142 38.1456 46.1208 38.0182 46.4406 38.0178H75.3908C75.7106 38.0182 76.0172 38.1456 76.2433 38.3721C76.4695 38.5986 76.5967 38.9058 76.597 39.2261V55.4109C76.5967 55.7312 76.4694 56.0383 76.2433 56.2648C76.0172 56.4913 75.7106 56.6188 75.3908 56.6191ZM46.4406 38.5011C46.2487 38.5013 46.0648 38.5778 45.9291 38.7137C45.7934 38.8496 45.7171 39.0339 45.7169 39.2261V55.4109C45.7171 55.6031 45.7934 55.7874 45.9291 55.9233C46.0648 56.0592 46.2487 56.1356 46.4406 56.1358H75.3908C75.5827 56.1356 75.7667 56.0592 75.9023 55.9233C76.038 55.7874 76.1143 55.6031 76.1146 55.4109V39.2261C76.1143 39.0339 76.038 38.8496 75.9023 38.7137C75.7667 38.5778 75.5827 38.5013 75.3908 38.5011L46.4406 38.5011Z" fill="#E6E6E6"/>
<path d="M39.6858 134.673H10.7356C10.4158 134.672 10.1092 134.545 9.88308 134.318C9.65694 134.092 9.52973 133.785 9.52936 133.464V103.264C9.52974 102.944 9.65695 102.636 9.88308 102.41C10.1092 102.183 10.4158 102.056 10.7356 102.056H39.6858C40.0056 102.056 40.3122 102.183 40.5383 102.41C40.7644 102.636 40.8916 102.944 40.892 103.264V133.464C40.8917 133.785 40.7644 134.092 40.5383 134.318C40.3122 134.545 40.0056 134.672 39.6858 134.673ZM10.7356 102.539C10.5437 102.539 10.3598 102.616 10.2241 102.751C10.0884 102.887 10.0121 103.072 10.0119 103.264V133.464C10.0121 133.657 10.0884 133.841 10.2241 133.977C10.3598 134.113 10.5437 134.189 10.7356 134.189H39.6858C39.8777 134.189 40.0616 134.113 40.1973 133.977C40.333 133.841 40.4093 133.657 40.4095 133.464V103.264C40.4093 103.072 40.333 102.887 40.1973 102.751C40.0616 102.616 39.8777 102.539 39.6858 102.539H10.7356Z" fill="#E6E6E6"/>
<path d="M75.3908 134.673H46.4406C46.1208 134.672 45.8142 134.545 45.5881 134.318C45.362 134.092 45.2347 133.785 45.2344 133.464V103.264C45.2348 102.944 45.362 102.636 45.5881 102.41C45.8142 102.183 46.1208 102.056 46.4406 102.056H75.3908C75.7106 102.056 76.0172 102.183 76.2433 102.41C76.4694 102.636 76.5967 102.944 76.597 103.264V133.464C76.5967 133.785 76.4695 134.092 76.2433 134.318C76.0172 134.545 75.7106 134.672 75.3908 134.673ZM46.4406 102.539C46.2487 102.539 46.0648 102.616 45.9291 102.751C45.7934 102.887 45.7171 103.072 45.7169 103.264V133.464C45.7171 133.657 45.7934 133.841 45.9291 133.977C46.0648 134.113 46.2487 134.189 46.4406 134.189H75.3908C75.5827 134.189 75.7667 134.113 75.9023 133.977C76.038 133.841 76.1143 133.657 76.1146 133.464V103.264C76.1143 103.072 76.038 102.887 75.9023 102.751C75.7667 102.616 75.5827 102.539 75.3908 102.539H46.4406Z" fill="#E6E6E6"/>
<path d="M20.3742 78.6842C23.0879 78.6842 25.2878 76.4807 25.2878 73.7624C25.2878 71.0442 23.0879 68.8406 20.3742 68.8406C17.6605 68.8406 15.4606 71.0442 15.4606 73.7624C15.4606 76.4807 17.6605 78.6842 20.3742 78.6842Z" fill="#E6E6E6"/>
<path d="M31.7223 70.4813C31.5051 70.4813 31.2968 70.5677 31.1432 70.7215C30.9897 70.8754 30.9034 71.084 30.9034 71.3016C30.9034 71.5191 30.9897 71.7278 31.1432 71.8816C31.2968 72.0355 31.5051 72.1219 31.7223 72.1219H70.3294C70.5463 72.1214 70.7541 72.0347 70.9073 71.881C71.0604 71.7272 71.1465 71.5188 71.1465 71.3016C71.1465 71.0844 71.0604 70.876 70.9073 70.7222C70.7541 70.5685 70.5463 70.4818 70.3294 70.4813H31.7223Z" fill="#E6E6E6"/>
<path d="M31.7223 75.4031C31.5052 75.4029 31.297 75.489 31.1432 75.6424C30.9895 75.7959 30.9029 76.0043 30.9025 76.2217C30.902 76.4391 30.9877 76.6478 31.1408 76.8019C31.2939 76.9561 31.5018 77.043 31.7188 77.0437H48.3351C48.5522 77.0437 48.7605 76.9573 48.9141 76.8034C49.0677 76.6496 49.154 76.441 49.154 76.2234C49.154 76.0058 49.0677 75.7972 48.9141 75.6434C48.7605 75.4895 48.5522 75.4031 48.3351 75.4031H31.7223Z" fill="#E6E6E6"/>
<path d="M16.6052 83.2716C15.9823 83.2716 15.4753 83.6396 15.4753 84.0919C15.4753 84.5442 15.9823 84.9122 16.6052 84.9122H69.8712C70.4941 84.9122 71.001 84.5442 71.001 84.0919C71.001 83.6396 70.4941 83.2716 69.8712 83.2716H16.6052Z" fill="#E6E6E6"/>
<path d="M16.6052 88.1935C15.9823 88.1935 15.4753 88.5615 15.4753 89.0138C15.4753 89.4661 15.9823 89.8341 16.6052 89.8341H69.8712C70.4941 89.8341 71.001 89.4661 71.001 89.0138C71.001 88.5615 70.4941 88.1935 69.8712 88.1935H16.6052Z" fill="#E6E6E6"/>
<path d="M20.8566 26.4874C23.5704 26.4874 25.7703 24.2838 25.7703 21.5656C25.7703 18.8473 23.5704 16.6437 20.8566 16.6437C18.1429 16.6437 15.943 18.8473 15.943 21.5656C15.943 24.2838 18.1429 26.4874 20.8566 26.4874Z" fill="#E6E6E6"/>
<path d="M32.2048 18.2844C31.9879 18.2849 31.7801 18.3716 31.6269 18.5253C31.4738 18.6791 31.3878 18.8875 31.3878 19.1047C31.3878 19.3219 31.4738 19.5303 31.6269 19.6841C31.7801 19.8378 31.9879 19.9245 32.2048 19.925H70.8119C70.9195 19.9253 71.0261 19.9044 71.1257 19.8635C71.2252 19.8225 71.3157 19.7623 71.392 19.6863C71.4683 19.6103 71.5289 19.5199 71.5703 19.4204C71.6117 19.3209 71.6332 19.2142 71.6334 19.1064C71.6336 18.9987 71.6126 18.8919 71.5716 18.7922C71.5306 18.6925 71.4704 18.6019 71.3945 18.5256C71.3185 18.4493 71.2282 18.3887 71.1289 18.3473C71.0295 18.3059 70.923 18.2845 70.8154 18.2844C70.8142 18.2844 70.8131 18.2844 70.8119 18.2844H32.2048Z" fill="#E6E6E6"/>
<path d="M32.2049 23.2062C31.9879 23.2066 31.7799 23.2932 31.6266 23.447C31.4734 23.6008 31.3873 23.8092 31.3873 24.0265C31.3873 24.2438 31.4734 24.4523 31.6266 24.6061C31.7799 24.7599 31.9879 24.8465 32.2049 24.8468H48.8176C49.0348 24.8473 49.2433 24.7613 49.3972 24.6078C49.5511 24.4543 49.6378 24.2458 49.6383 24.0283C49.6387 23.8107 49.5529 23.6019 49.3996 23.4477C49.2464 23.2935 49.0383 23.2067 48.8211 23.2062C48.8199 23.2062 48.8188 23.2062 48.8176 23.2062H32.2049Z" fill="#E6E6E6"/>
<path d="M39.6601 56.622H12.5023L18.8934 45.5337C19.008 45.3349 19.1727 45.1699 19.3711 45.0551C19.5695 44.9404 19.7946 44.88 20.0237 44.88C20.2528 44.88 20.4779 44.9404 20.6763 45.0551C20.8747 45.1699 21.0394 45.3349 21.154 45.5337L23.8842 50.2704L28.5265 42.2164C28.6699 41.9675 28.8762 41.7609 29.1246 41.6173C29.373 41.4736 29.6548 41.398 29.9416 41.398C30.2284 41.398 30.5102 41.4736 30.7586 41.6173C31.007 41.7609 31.2133 41.9675 31.3567 42.2164L39.6601 56.622ZM13.338 56.1387H38.8244L30.9388 42.458C30.8377 42.2827 30.6924 42.137 30.5174 42.0358C30.3423 41.9345 30.1437 41.8812 29.9416 41.8812C29.7395 41.8812 29.5409 41.9345 29.3659 42.0358C29.1908 42.137 29.0455 42.2827 28.9445 42.458L23.8842 51.237L20.7361 45.7753C20.6639 45.65 20.5601 45.546 20.435 45.4737C20.31 45.4014 20.1681 45.3633 20.0237 45.3633C19.8793 45.3633 19.7375 45.4014 19.6124 45.4737C19.4874 45.546 19.3836 45.65 19.3114 45.7753L13.338 56.1387Z" fill="#E6E6E6"/>
<path d="M74.4002 56.622H47.2424L53.6336 45.5337C53.7481 45.3349 53.9128 45.1699 54.1113 45.0551C54.3097 44.9404 54.5347 44.88 54.7638 44.88C54.9929 44.88 55.218 44.9404 55.4164 45.0551C55.6148 45.1699 55.7796 45.3349 55.8941 45.5337L58.6243 50.2704L63.2666 42.2164C63.41 41.9675 63.6163 41.7609 63.8647 41.6173C64.1131 41.4736 64.3949 41.398 64.6817 41.398C64.9686 41.398 65.2503 41.4736 65.4987 41.6173C65.7471 41.7609 65.9534 41.9675 66.0968 42.2164L74.4002 56.622ZM48.0781 56.1387H73.5645L65.6789 42.458C65.5778 42.2827 65.4325 42.137 65.2575 42.0358C65.0824 41.9346 64.8839 41.8813 64.6817 41.8813C64.4796 41.8813 64.281 41.9346 64.106 42.0358C63.931 42.137 63.7856 42.2827 63.6846 42.458L58.6243 51.237L55.4762 45.7753C55.404 45.65 55.3002 45.546 55.1751 45.4737C55.0501 45.4014 54.9082 45.3633 54.7638 45.3633C54.6194 45.3633 54.4776 45.4014 54.3525 45.4737C54.2275 45.546 54.1237 45.65 54.0515 45.7753L48.0781 56.1387Z" fill="#E6E6E6"/>
<path d="M39.6858 56.6191H10.7356C10.4158 56.6188 10.1092 56.4913 9.88307 56.2648C9.65694 56.0383 9.52973 55.7312 9.52936 55.4109V39.2261C9.52973 38.9057 9.65694 38.5986 9.88308 38.3721C10.1092 38.1456 10.4158 38.0182 10.7356 38.0178H39.6858C40.0056 38.0182 40.3122 38.1456 40.5383 38.3721C40.7644 38.5986 40.8916 38.9057 40.892 39.2261V55.4109C40.8916 55.7312 40.7644 56.0383 40.5383 56.2648C40.3122 56.4913 40.0056 56.6188 39.6858 56.6191ZM10.7356 38.5011C10.5437 38.5013 10.3597 38.5778 10.2241 38.7137C10.0884 38.8496 10.0121 39.0339 10.0118 39.2261V55.4109C10.0121 55.6031 10.0884 55.7874 10.2241 55.9233C10.3597 56.0592 10.5437 56.1356 10.7356 56.1358H39.6858C39.8777 56.1356 40.0616 56.0592 40.1973 55.9233C40.333 55.7874 40.4093 55.6031 40.4095 55.4109V39.2261C40.4093 39.0339 40.333 38.8496 40.1973 38.7137C40.0616 38.5778 39.8777 38.5013 39.6858 38.5011L10.7356 38.5011Z" fill="#E6E6E6"/>
<path d="M16.9042 108.284C16.7966 108.283 16.6899 108.304 16.5904 108.346C16.4909 108.387 16.4005 108.447 16.3243 108.523C16.2481 108.6 16.1876 108.69 16.1464 108.79C16.1052 108.889 16.0839 108.996 16.0839 109.104C16.0839 109.212 16.1052 109.318 16.1464 109.418C16.1876 109.518 16.2481 109.608 16.3243 109.684C16.4005 109.761 16.4909 109.821 16.5904 109.862C16.6899 109.903 16.7966 109.924 16.9042 109.924H33.517C33.6247 109.924 33.7313 109.903 33.8308 109.862C33.9303 109.821 34.0208 109.761 34.097 109.684C34.1731 109.608 34.2336 109.518 34.2748 109.418C34.3161 109.318 34.3373 109.212 34.3373 109.104C34.3373 108.996 34.3161 108.889 34.2748 108.79C34.2336 108.69 34.1731 108.6 34.097 108.523C34.0208 108.447 33.9303 108.387 33.8308 108.346C33.7313 108.304 33.6247 108.283 33.517 108.284H16.9042Z" fill="#E6E6E6"/>
<path d="M16.9043 113.117C16.6871 113.117 16.4788 113.203 16.3252 113.357C16.1717 113.511 16.0854 113.719 16.0854 113.937C16.0854 114.154 16.1717 114.363 16.3252 114.517C16.4788 114.671 16.6871 114.757 16.9043 114.757H33.5171C33.7343 114.757 33.9426 114.671 34.0962 114.517C34.2498 114.363 34.336 114.154 34.336 113.937C34.336 113.719 34.2498 113.511 34.0962 113.357C33.9426 113.203 33.7343 113.117 33.5171 113.117H16.9043Z" fill="#E6E6E6"/>
<path d="M25.2106 128.445C24.1911 128.445 23.1945 128.142 22.3468 127.575C21.499 127.007 20.8383 126.201 20.4482 125.257C20.058 124.314 19.9559 123.276 20.1548 122.274C20.3537 121.272 20.8447 120.352 21.5656 119.63C22.2865 118.908 23.205 118.416 24.205 118.217C25.2049 118.018 26.2414 118.12 27.1833 118.511C28.1252 118.902 28.9303 119.564 29.4967 120.413C30.0632 121.262 30.3655 122.26 30.3655 123.281C30.3639 124.65 29.8203 125.963 28.854 126.931C27.8876 127.899 26.5773 128.443 25.2106 128.445ZM25.2106 118.601C24.2865 118.601 23.3832 118.876 22.6148 119.39C21.8465 119.904 21.2476 120.635 20.8939 121.49C20.5403 122.346 20.4478 123.287 20.6281 124.194C20.8083 125.102 21.2534 125.936 21.9068 126.591C22.5602 127.245 23.3928 127.691 24.2991 127.872C25.2055 128.052 26.1449 127.96 26.9987 127.605C27.8524 127.251 28.5822 126.651 29.0956 125.882C29.609 125.112 29.883 124.207 29.883 123.281C29.8815 122.041 29.3888 120.851 28.5129 119.974C27.637 119.096 26.4494 118.603 25.2106 118.601V118.601Z" fill="#E6E6E6"/>
<path d="M75.8733 31.4873H10.7356C10.4158 31.4869 10.1092 31.3595 9.88308 31.133C9.65694 30.9065 9.52973 30.5994 9.52936 30.279V14.0942C9.52973 13.7739 9.65694 13.4668 9.88308 13.2403C10.1092 13.0138 10.4158 12.8864 10.7356 12.886H75.8733C76.1931 12.8864 76.4997 13.0138 76.7259 13.2403C76.952 13.4668 77.0792 13.7739 77.0796 14.0942V30.279C77.0792 30.5994 76.952 30.9065 76.7259 31.133C76.4997 31.3595 76.1931 31.4869 75.8733 31.4873ZM10.7356 13.3693C10.5437 13.3695 10.3598 13.4459 10.2241 13.5818C10.0884 13.7178 10.0121 13.902 10.0119 14.0942V30.279C10.0121 30.4713 10.0884 30.6555 10.2241 30.7914C10.3598 30.9274 10.5437 31.0038 10.7356 31.004H75.8733C76.0652 31.0038 76.2492 30.9274 76.3849 30.7914C76.5206 30.6555 76.5969 30.4713 76.5971 30.279V14.0942C76.5969 13.902 76.5206 13.7178 76.3849 13.5818C76.2492 13.4459 76.0652 13.3695 75.8733 13.3693L10.7356 13.3693Z" fill="#E6E6E6"/>
<path d="M69.2221 128.445C69.3298 128.445 69.4364 128.424 69.5359 128.383C69.6354 128.342 69.7259 128.281 69.8021 128.205C69.8782 128.129 69.9387 128.038 69.9799 127.939C70.0212 127.839 70.0424 127.732 70.0424 127.625C70.0424 127.517 70.0212 127.41 69.9799 127.31C69.9387 127.211 69.8782 127.12 69.8021 127.044C69.7259 126.968 69.6354 126.907 69.5359 126.866C69.4364 126.825 69.3298 126.804 69.2221 126.804H52.6093C52.3924 126.805 52.1844 126.891 52.0311 127.045C51.8778 127.199 51.7917 127.407 51.7917 127.625C51.7917 127.842 51.8778 128.05 52.0311 128.204C52.1844 128.358 52.3924 128.444 52.6093 128.445H69.2221Z" fill="#E6E6E6"/>
<path d="M69.222 123.612C69.3297 123.612 69.4363 123.591 69.5359 123.55C69.6354 123.509 69.7258 123.448 69.802 123.372C69.8782 123.296 69.9386 123.205 69.9799 123.106C70.0211 123.006 70.0424 122.899 70.0424 122.791C70.0424 122.684 70.0211 122.577 69.9799 122.477C69.9386 122.378 69.8782 122.287 69.802 122.211C69.7258 122.135 69.6354 122.074 69.5359 122.033C69.4363 121.992 69.3297 121.971 69.222 121.971H52.6093C52.3921 121.971 52.1838 122.058 52.0302 122.211C51.8766 122.365 51.7903 122.574 51.7903 122.791C51.7903 123.009 51.8766 123.218 52.0302 123.371C52.1838 123.525 52.3921 123.612 52.6093 123.612H69.222Z" fill="#E6E6E6"/>
<path d="M60.9156 108.284C61.9351 108.284 62.9318 108.586 63.7795 109.154C64.6272 109.721 65.2879 110.528 65.678 111.471C66.0682 112.415 66.1703 113.453 65.9714 114.454C65.7725 115.456 65.2815 116.376 64.5606 117.098C63.8397 117.82 62.9212 118.312 61.9213 118.511C60.9213 118.71 59.8848 118.608 58.9429 118.217C58.001 117.827 57.1959 117.165 56.6295 116.316C56.0631 115.467 55.7607 114.468 55.7607 113.447V113.447C55.7623 112.078 56.3059 110.766 57.2723 109.798C58.2387 108.83 59.5489 108.285 60.9156 108.284ZM60.9156 118.127C61.8397 118.127 62.743 117.853 63.5114 117.338C64.2798 116.824 64.8786 116.093 65.2323 115.238C65.5859 114.383 65.6785 113.442 65.4982 112.534C65.3179 111.626 64.8729 110.792 64.2195 110.138C63.566 109.483 62.7335 109.037 61.8272 108.857C60.9208 108.676 59.9814 108.769 59.1276 109.123C58.2738 109.477 57.5441 110.077 57.0307 110.847C56.5173 111.616 56.2433 112.521 56.2433 113.447V113.447C56.2447 114.688 56.7374 115.877 57.6133 116.755C58.4893 117.632 59.6769 118.126 60.9156 118.127V118.127Z" fill="#E6E6E6"/>
<path opacity="0.3" d="M53.019 42.7014C59.758 42.7014 65.221 37.2293 65.221 30.4791C65.221 23.7289 59.758 18.2568 53.019 18.2568C46.28 18.2568 40.817 23.7289 40.817 30.4791C40.817 37.2293 46.28 42.7014 53.019 42.7014Z" fill="#6859B2"/>
<path opacity="0.3" d="M53.019 38.6273C57.5117 38.6273 61.1537 34.9793 61.1537 30.4791C61.1537 25.979 57.5117 22.3309 53.019 22.3309C48.5264 22.3309 44.8844 25.979 44.8844 30.4791C44.8844 34.9793 48.5264 38.6273 53.019 38.6273Z" fill="#6859B2"/>
<path d="M53.0191 36.1376C56.1389 36.1376 58.6681 33.6042 58.6681 30.4791C58.6681 27.354 56.1389 24.8206 53.0191 24.8206C49.8992 24.8206 47.37 27.354 47.37 30.4791C47.37 33.6042 49.8992 36.1376 53.0191 36.1376Z" fill="#6859B2"/>
<path opacity="0.3" d="M25.2257 122.129C30.2077 122.129 34.2464 118.083 34.2464 113.093C34.2464 108.103 30.2077 104.057 25.2257 104.057C20.2437 104.057 16.205 108.103 16.205 113.093C16.205 118.083 20.2437 122.129 25.2257 122.129Z" fill="#6859B2"/>
<path opacity="0.3" d="M25.2257 119.117C28.547 119.117 31.2395 116.42 31.2395 113.093C31.2395 109.766 28.547 107.069 25.2257 107.069C21.9043 107.069 19.2119 109.766 19.2119 113.093C19.2119 116.42 21.9043 119.117 25.2257 119.117Z" fill="#6859B2"/>
<path d="M25.2257 117.276C27.5322 117.276 29.4019 115.403 29.4019 113.093C29.4019 110.782 27.5322 108.91 25.2257 108.91C22.9192 108.91 21.0494 110.782 21.0494 113.093C21.0494 115.403 22.9192 117.276 25.2257 117.276Z" fill="#6859B2"/>
<path opacity="0.3" d="M62.7355 88.1777C68.4663 88.1777 73.112 83.5242 73.112 77.7839C73.112 72.0436 68.4663 67.3901 62.7355 67.3901C57.0047 67.3901 52.359 72.0436 52.359 77.7839C52.359 83.5242 57.0047 88.1777 62.7355 88.1777Z" fill="#6859B2"/>
<path opacity="0.3" d="M62.7354 84.7131C66.5559 84.7131 69.6531 81.6108 69.6531 77.7839C69.6531 73.957 66.5559 70.8547 62.7354 70.8547C58.9149 70.8547 55.8177 73.957 55.8177 77.7839C55.8177 81.6108 58.9149 84.7131 62.7354 84.7131Z" fill="#6859B2"/>
<path d="M62.7354 82.5959C65.3886 82.5959 67.5394 80.4416 67.5394 77.784C67.5394 75.1264 65.3886 72.9721 62.7354 72.9721C60.0823 72.9721 57.9315 75.1264 57.9315 77.784C57.9315 80.4416 60.0823 82.5959 62.7354 82.5959Z" fill="#6859B2"/>
<path d="M115.461 84.1353L112.933 88.4132C112.683 88.8363 112.339 89.1959 111.927 89.4639C111.516 89.7319 111.048 89.9012 110.56 89.9584C110.073 90.0156 109.579 89.9594 109.116 89.7939C108.654 89.6285 108.236 89.3584 107.895 89.0047C107.578 88.6755 107.335 88.2818 107.183 87.8504C107.03 87.4189 106.973 86.9597 107.013 86.5039C107.053 86.0481 107.191 85.6063 107.417 85.2084C107.642 84.8105 107.951 84.4659 108.321 84.1978L112.433 81.2196C116.381 75.8657 118.65 66.7664 120.584 56.919L128.618 57.8629C126.547 65.9172 121.595 74.8468 115.461 84.1353Z" fill="#9F616A"/>
<path d="M116.457 59.7912L129.522 63.5024V40.6492L127.787 41.2113C126.272 41.7022 124.896 42.5472 123.771 43.6765C122.647 44.8058 121.807 46.1868 121.32 47.7056L116.457 59.7912Z" fill="#6859B2"/>
<path d="M143.172 141.633L138.297 141.437C136.696 124.933 134.652 109.945 130.497 102.177C126.473 106.494 125.559 120.133 124.885 138.703H120.162C115.196 117.303 113.942 102.13 120.162 87.7228H145.512L143.172 141.633Z" fill="#2F2E41"/>
<path d="M125.18 142.012L116.718 146.342C116.492 146.458 116.244 146.527 115.99 146.543C115.736 146.559 115.482 146.523 115.242 146.437C115.003 146.351 114.783 146.217 114.598 146.043C114.412 145.869 114.264 145.658 114.162 145.425C113.982 145.01 113.959 144.544 114.096 144.113C114.234 143.682 114.523 143.316 114.909 143.083L116.063 142.386L119.276 137.575L124.752 137.142L125.753 138.104C126.032 138.371 126.243 138.702 126.368 139.067C126.493 139.433 126.529 139.824 126.473 140.206C126.417 140.589 126.27 140.952 126.045 141.267C125.82 141.581 125.524 141.837 125.18 142.012Z" fill="#2F2E41"/>
<path d="M142.375 146.07L132.877 146.337C132.623 146.345 132.37 146.299 132.133 146.205C131.897 146.11 131.683 145.968 131.503 145.788C131.324 145.607 131.184 145.391 131.091 145.154C130.998 144.917 130.954 144.663 130.963 144.409C130.978 143.957 131.157 143.525 131.466 143.196C131.775 142.866 132.193 142.659 132.642 142.615L133.983 142.483L138.948 139.522L144.078 141.488L144.57 142.787C144.707 143.149 144.755 143.538 144.711 143.922C144.668 144.306 144.533 144.674 144.318 144.996C144.103 145.317 143.814 145.582 143.477 145.769C143.139 145.956 142.761 146.059 142.375 146.07Z" fill="#2F2E41"/>
<path d="M132.718 36.4236C136.239 36.4236 139.093 33.5646 139.093 30.0378C139.093 26.5111 136.239 23.6521 132.718 23.6521C129.197 23.6521 126.343 26.5111 126.343 30.0378C126.343 33.5646 129.197 36.4236 132.718 36.4236Z" fill="#9F616A"/>
<path d="M143.172 40.2586L129.912 45.337C130.684 41.167 130.694 37.2385 129.424 33.7151L137.907 32.2502C137.195 35.9132 139.4 38.4014 143.172 40.2586Z" fill="#9F616A"/>
<path d="M148.632 91.434C136.961 93.6535 127.563 92.2296 119.967 87.9181C123.48 75.7922 123.98 62.376 123.06 48.352C122.97 46.9497 123.316 45.5539 124.052 44.3577C124.789 43.1614 125.878 42.224 127.169 41.6751L130.497 40.2586C132.291 44.3426 136.426 41.9891 140.832 38.8913L146.276 41.3009C147.14 41.6832 147.868 42.3208 148.36 43.1285C148.853 43.9363 149.087 44.8754 149.032 45.8203C147.944 64.4494 146.481 84.4217 148.632 91.434Z" fill="#6859B2"/>
<path d="M152.532 88.6995L152.185 93.6819C152.122 94.5898 151.702 95.4359 151.018 96.0352C150.334 96.6344 149.441 96.9383 148.535 96.8803C147.94 96.8423 147.366 96.6505 146.868 96.3236C146.37 95.9967 145.966 95.5459 145.694 95.0153C145.422 94.4848 145.292 93.8926 145.317 93.2968C145.342 92.7009 145.521 92.1218 145.837 91.6161L148.632 87.1369C150.283 80.6893 148.973 71.4028 147.072 61.5491L154.872 59.4005C155.973 67.6442 154.733 77.7832 152.532 88.6995Z" fill="#9F616A"/>
<path d="M140.016 25.889C140.016 25.889 141.207 23.2627 138.109 22.069C138.109 22.069 135.487 17.7714 130.243 20.6364C130.243 20.6364 126.668 22.069 126.668 25.889C126.668 29.709 125.476 30.4253 125.476 30.4253C125.476 30.4253 127.251 28.6015 127.727 27.169C128.204 25.7365 131.912 25.4115 133.342 26.844C134.772 28.2765 138.347 28.0378 138.347 28.0378L138.109 33.2903C138.109 33.2903 139.301 30.1865 139.777 30.1865C140.254 30.1865 140.731 25.889 140.016 25.889Z" fill="#2F2E41"/>
<path d="M157.602 59.5958L144.537 63.307V40.4539L146.271 41.0159C147.786 41.5069 149.163 42.3519 150.287 43.4812C151.412 44.6104 152.252 45.9915 152.738 47.5102L157.602 59.5958Z" fill="#6859B2"/>
<path d="M184 145.98H44.2254V147H184V145.98Z" fill="#E6E6E6"/>
<path d="M166.723 103.053C170.269 108.074 171.206 136.65 171.415 145.81C171.42 146.017 171.425 146.212 171.428 146.397H180.404C180.514 146.202 180.616 146.009 180.712 145.81C186.033 135.291 183.081 122.678 182.925 122.04C183.329 124.045 181.502 129.857 179.436 135.487C178.175 118.177 167.398 103.927 166.723 103.053Z" fill="#E6E6E6"/>
</svg>
