<svg width="15" height="16" viewBox="0 0 15 16" fill="none" xmlns="http://www.w3.org/2000/svg">
<path d="M1 3.80002H2.44444H14" stroke="#6859B3" stroke-linecap="round" stroke-linejoin="round"/>
<path d="M4.61109 3.8V2.4C4.61109 2.0287 4.76328 1.6726 5.03416 1.41005C5.30505 1.1475 5.67245 1 6.05554 1H8.94443C9.32752 1 9.69492 1.1475 9.9658 1.41005C10.2367 1.6726 10.3889 2.0287 10.3889 2.4V3.8M12.5555 3.8V13.6C12.5555 13.9713 12.4034 14.3274 12.1325 14.5899C11.8616 14.8525 11.4942 15 11.1111 15H3.88887C3.50578 15 3.13838 14.8525 2.8675 14.5899C2.59661 14.3274 2.44443 13.9713 2.44443 13.6V3.8H12.5555Z" stroke="#6859B3" stroke-linecap="round" stroke-linejoin="round"/>
<path d="M6.05559 7.30002V11.5" stroke="#6859B3" stroke-linecap="round" stroke-linejoin="round"/>
<path d="M8.94444 7.30002V11.5" stroke="#6859B3" stroke-linecap="round" stroke-linejoin="round"/>
</svg>
